<?xml version="1.0" standalone="no"?>
<!DOCTYPE svg PUBLIC "-//W3C//DTD SVG 20010904//EN"
 "http://www.w3.org/TR/2001/REC-SVG-20010904/DTD/svg10.dtd">
<svg version="1.0" xmlns="http://www.w3.org/2000/svg"
 width="652.000000pt" height="664.000000pt" viewBox="0 0 652.000000 664.000000"
 preserveAspectRatio="xMidYMid meet">

<g transform="translate(0.000000,664.000000) scale(0.100000,-0.100000)"
fill="#000000" stroke="none">
<path d="M2533 6619 c-24 -4 -57 -14 -75 -22 -18 -8 -62 -23 -98 -32 -36 -9
-83 -25 -105 -35 -22 -10 -51 -21 -64 -25 -13 -4 -97 -44 -186 -90 -89 -45
-168 -82 -176 -82 -8 0 -32 -11 -54 -25 -22 -13 -47 -27 -56 -30 -9 -4 -48
-27 -88 -52 -39 -25 -75 -46 -79 -46 -5 0 -17 -7 -28 -15 -17 -15 -3 -15 161
-9 166 6 182 8 217 30 21 13 62 35 91 48 28 13 122 55 207 94 85 40 171 74
190 77 19 3 68 10 109 16 56 9 89 9 141 0 102 -18 173 -43 207 -72 35 -29 88
-123 79 -138 -4 -5 7 -50 23 -99 38 -119 45 -161 31 -213 -14 -58 -51 -130
-61 -123 -9 5 -13 -10 -9 -35 1 -7 -8 -36 -20 -63 -12 -28 -19 -56 -16 -64 3
-8 1 -14 -4 -14 -13 0 -50 -37 -43 -43 9 -9 -45 -91 -94 -143 -121 -127 -177
-190 -205 -228 -16 -22 -47 -60 -69 -83 -21 -23 -39 -47 -39 -52 0 -6 -4 -11
-10 -11 -5 0 -10 -5 -10 -11 0 -13 -139 -209 -149 -209 -3 0 -46 -32 -96 -70
-111 -88 -199 -138 -268 -152 -51 -11 -55 -10 -108 21 -56 34 -106 89 -147
162 -26 47 -72 230 -98 391 -15 90 -20 107 -37 112 -12 3 -87 2 -168 -1 l-148
-6 -5 -51 c-3 -28 -4 -98 -3 -156 l2 -105 30 -3 30 -3 -3 141 c-2 79 0 140 6
140 17 0 34 -75 39 -177 l6 -103 28 0 c16 0 29 -4 29 -10 0 -5 -12 -10 -26
-10 -25 0 -26 -1 -19 -52 12 -83 11 -103 -3 -103 -15 0 -37 55 -47 118 -6 34
-10 38 -29 33 -11 -3 -26 -6 -33 -6 -8 0 -11 -17 -7 -57 7 -96 15 -143 22
-144 4 -1 66 -3 137 -5 135 -4 160 -8 151 -23 -5 -8 -151 -23 -241 -25 -36 -1
-40 -4 -45 -31 -3 -16 -9 -28 -13 -25 -16 10 -27 -28 -16 -57 13 -34 25 -43
65 -43 17 0 37 -7 44 -16 12 -13 80 -15 631 -10 566 6 654 3 621 -18 -5 -3
-70 -6 -145 -7 -110 -1 -137 -4 -137 -15 0 -8 -4 -14 -10 -14 -5 0 -10 6 -10
14 0 12 -32 14 -202 9 -137 -4 -208 -9 -218 -17 -13 -11 -86 -36 -104 -36 -3
0 -6 4 -6 9 0 6 20 13 45 17 25 3 48 11 52 17 4 6 -2 8 -18 4 -13 -4 -54 -7
-91 -7 -39 0 -68 -4 -68 -10 0 -5 5 -10 10 -10 13 0 19 -5 83 -61 27 -24 58
-57 69 -73 12 -18 -3 -7 -38 27 -79 79 -124 103 -217 116 -107 15 -133 14
-154 -7 -17 -18 -132 -75 -203 -102 -19 -7 -39 -17 -45 -22 -5 -4 -17 -8 -27
-8 -10 0 -18 -4 -18 -10 0 -5 -11 -12 -25 -16 -14 -3 -30 -15 -36 -26 -6 -10
-25 -28 -42 -38 -32 -20 -30 -20 412 -19 l443 0 -7 26 -6 26 35 -26 35 -27
225 0 c124 0 226 -4 226 -8 0 -14 -156 -35 -302 -41 -154 -7 -142 2 -99 -72 7
-13 -7 -2 -33 24 l-47 48 -254 -2 c-206 -2 -255 -5 -255 -16 0 -9 -13 -13 -40
-13 -34 0 -40 -3 -40 -21 0 -15 -4 -19 -16 -15 -9 3 -20 6 -25 6 -5 0 -9 14
-9 30 l0 30 -62 -1 c-66 -1 -67 -3 -4 -14 l38 -6 -36 -20 c-26 -14 -56 -19
-107 -19 -89 0 -109 -10 -109 -55 0 -45 -55 -89 -124 -99 -27 -4 -55 -10 -62
-13 -10 -3 -12 0 -8 10 3 10 -2 18 -16 22 -12 4 -41 33 -65 66 -36 49 -45 56
-55 44 -7 -8 -18 -15 -24 -15 -6 0 -19 -9 -29 -20 -9 -11 -28 -20 -42 -20 -14
0 -25 -4 -25 -10 0 -6 -40 -10 -99 -10 -76 0 -100 -3 -104 -14 -4 -9 -14 -12
-26 -9 -20 5 -93 -39 -122 -73 -13 -16 -12 -17 11 -11 14 3 75 11 135 17 61 6
115 13 120 14 16 5 30 2 28 -6 -2 -5 35 -8 82 -8 47 0 85 4 85 8 0 9 -29 25
-62 36 -10 3 -18 12 -18 21 0 8 -5 15 -11 15 -5 0 -7 5 -4 10 13 21 54 8 113
-36 l61 -45 238 1 c157 0 239 4 244 11 5 8 12 8 27 0 24 -13 162 -15 162 -2 0
5 -7 14 -15 21 -16 13 -21 70 -6 70 5 0 22 -21 38 -46 l28 -46 560 6 c308 3
572 6 586 6 26 0 27 2 32 78 7 111 57 252 123 345 19 26 34 51 34 56 0 5 32
42 71 83 39 40 74 82 79 93 9 24 106 75 164 87 101 20 148 25 242 23 116 -3
185 -16 267 -53 48 -22 103 -62 84 -62 -3 0 24 -30 60 -67 143 -150 238 -341
250 -504 l6 -77 451 -7 c248 -3 511 -5 585 -3 121 3 135 5 145 23 6 10 17 25
24 33 6 7 12 18 12 23 0 5 7 9 15 9 19 0 20 -40 0 -66 -8 -10 -15 -22 -15 -26
0 -13 139 -9 160 5 16 9 22 9 28 0 6 -9 71 -13 241 -14 224 -1 235 0 262 20
95 70 138 87 154 61 3 -5 2 -10 -3 -10 -5 0 -12 -9 -15 -21 -4 -13 -12 -19
-24 -17 -18 3 -53 -19 -53 -34 0 -5 42 -8 93 -8 55 0 87 4 78 9 -8 5 -9 11 -3
15 6 3 13 2 16 -2 5 -8 61 -17 170 -27 16 -2 50 -6 75 -10 l46 -7 -20 22 c-29
33 -103 73 -121 66 -8 -3 -17 1 -20 9 -5 12 -27 15 -104 15 -55 0 -102 4 -105
10 -3 6 -15 10 -26 10 -10 0 -27 8 -37 18 -32 30 -82 53 -82 38 0 -21 -68
-104 -90 -111 -11 -3 -20 -12 -20 -19 0 -10 -12 -10 -58 -2 -74 14 -132 55
-132 94 0 49 -12 56 -107 62 -48 3 -104 13 -123 22 l-35 15 55 10 55 11 -62 1
c-63 1 -63 1 -63 -28 0 -21 -6 -30 -22 -35 -36 -9 -40 -7 -33 14 6 18 2 20
-34 20 -27 0 -41 4 -41 13 0 11 -52 14 -257 16 l-256 2 -45 -48 -45 -48 27 46
26 47 -147 5 c-156 6 -293 24 -293 38 0 5 103 9 228 9 l229 0 23 25 c12 13 27
22 32 19 6 -4 5 -11 -1 -17 -6 -6 -11 -14 -11 -19 0 -4 201 -7 448 -7 249 0
438 4 426 9 -11 4 -32 22 -47 39 -14 17 -33 31 -42 31 -8 0 -18 7 -21 15 -4 8
-12 15 -19 15 -26 0 -256 106 -271 126 -36 45 -276 7 -324 -51 -7 -9 -23 -21
-34 -26 -12 -5 1 11 29 36 27 25 55 45 62 45 7 0 13 5 13 10 0 6 -30 10 -69
10 -38 0 -76 3 -85 6 -9 3 -16 2 -16 -4 0 -5 20 -13 45 -16 25 -4 45 -11 45
-17 0 -12 -4 -11 -54 3 -22 7 -47 18 -54 25 -10 9 -59 13 -180 14 -212 1 -246
-1 -253 -13 -4 -6 -8 -5 -11 3 -3 10 -38 14 -134 17 -138 3 -154 6 -154 22 0
7 195 8 623 4 559 -5 625 -4 636 10 8 9 23 16 35 16 42 0 65 12 74 39 10 28 2
63 -13 61 -6 0 -11 10 -13 23 -3 23 -7 24 -148 37 -94 9 -143 17 -141 24 2 7
60 15 145 20 l141 9 5 26 c3 14 8 58 11 97 7 69 6 71 -17 77 -35 10 -35 10
-42 -30 -11 -59 -38 -124 -50 -120 -13 4 -13 41 -2 110 8 46 8 47 -18 47 -14
0 -26 5 -26 10 0 6 14 10 30 10 l30 0 0 83 c0 45 7 106 14 135 8 29 15 55 15
57 1 3 4 5 9 5 4 0 7 -63 7 -140 l0 -140 26 0 c33 0 35 14 31 193 l-4 127
-111 2 c-62 0 -125 2 -142 4 -68 5 -82 -3 -89 -54 -4 -26 -11 -60 -16 -77 -5
-16 -12 -46 -14 -65 -20 -138 -43 -229 -77 -298 -34 -70 -117 -161 -166 -183
-18 -7 -33 -17 -33 -20 0 -14 -113 21 -174 55 -105 58 -260 184 -314 256 -47
63 -87 123 -99 148 -3 8 -19 28 -35 45 -16 18 -42 48 -56 67 -14 19 -56 67
-92 105 -136 146 -190 211 -212 255 -13 25 -33 55 -45 66 -12 12 -20 24 -17
27 3 2 -4 28 -16 56 -11 28 -20 71 -21 94 -1 33 -2 37 -8 18 -6 -22 -9 -19
-33 35 -41 93 -44 138 -15 241 14 48 30 114 36 145 11 60 43 120 82 152 21 17
92 45 129 50 8 1 39 8 69 15 55 14 122 11 236 -10 60 -12 78 -19 260 -102 175
-79 189 -86 241 -116 49 -28 57 -29 227 -36 98 -4 177 -5 177 -2 0 4 -21 17
-47 30 -27 13 -70 37 -98 54 -107 65 -168 98 -177 95 -5 -1 -82 35 -171 82
-102 52 -211 99 -292 126 -72 24 -139 46 -150 51 -64 24 -100 31 -195 36 -122
6 -171 -4 -219 -47 -18 -16 -37 -30 -40 -30 -4 0 -16 -8 -27 -19 -11 -10 -30
-23 -42 -30 -11 -6 -29 -25 -39 -41 -9 -17 -22 -30 -29 -30 -10 0 -44 -118
-44 -154 0 -9 -4 -16 -10 -16 -11 0 -4 45 16 105 22 64 19 71 -33 85 -87 22
-184 24 -274 5 -46 -9 -85 -18 -87 -19 -1 -2 3 -16 9 -32 17 -43 38 -144 29
-144 -8 0 -26 58 -35 118 -4 23 -12 42 -19 42 -7 0 -21 15 -30 33 -10 17 -48
53 -85 80 -36 26 -79 57 -94 69 -24 20 -41 23 -140 24 -62 1 -131 -2 -154 -7z
m-9 -145 c13 -5 14 -9 5 -20 -16 -20 -29 -17 -29 6 0 22 1 23 24 14z m1496
-14 c0 -11 -4 -20 -9 -20 -13 0 -32 26 -24 33 13 14 33 6 33 -13z m-950 -274
c-15 -15 -32 7 -24 29 7 17 8 17 21 -1 9 -12 10 -21 3 -28z m406 23 c8 -14
-18 -31 -30 -19 -9 9 0 30 14 30 5 0 12 -5 16 -11z m-166 -79 c0 -5 -4 -10
-10 -10 -5 0 -10 5 -10 10 0 6 5 10 10 10 6 0 10 -4 10 -10z m-173 -26 c-9 -9
-28 6 -21 18 4 6 10 6 17 -1 6 -6 8 -13 4 -17z m259 -1 c-10 -10 -19 5 -10 18
6 11 8 11 12 0 2 -7 1 -15 -2 -18z m-279 -225 c-5 -108 -22 -189 -64 -323 -23
-74 -30 -84 -96 -147 -74 -69 -115 -94 -60 -35 16 17 41 48 56 67 36 50 106
210 111 256 8 63 50 284 55 284 2 0 1 -46 -2 -102z m324 -117 c16 -117 84
-277 151 -354 28 -32 49 -60 46 -62 -2 -2 -35 24 -74 58 -69 60 -72 65 -99
152 -16 50 -34 110 -42 134 -7 24 -16 100 -18 170 l-5 126 15 -70 c8 -38 20
-108 26 -154z m-153 20 c2 -6 -8 -11 -27 -11 -20 0 -31 5 -31 14 0 18 52 15
58 -3z m-178 -346 c0 -8 -7 -15 -15 -15 -8 0 -15 7 -15 15 0 8 7 15 15 15 8 0
15 -7 15 -15z m330 6 c0 -14 -18 -23 -30 -16 -6 4 -8 11 -5 16 8 12 35 12 35
0z m-143 -99 c7 -4 -12 -8 -42 -8 -30 0 -49 4 -42 8 7 4 26 8 42 8 17 0 35 -4
42 -8z m-498 -109 c-17 -26 -41 -58 -52 -70 -11 -13 -17 -23 -13 -23 4 0 1 -6
-6 -13 -30 -30 -117 -155 -118 -168 0 -4 -19 -26 -42 -50 -24 -25 -50 -53 -58
-64 -8 -11 -48 -64 -88 -117 -40 -53 -85 -105 -100 -115 -35 -23 -134 -64
-140 -58 -3 3 -1 5 4 5 42 0 202 147 276 253 23 31 44 57 48 57 10 0 106 131
131 179 11 23 24 41 28 41 5 0 12 9 17 20 11 23 138 178 142 174 2 -1 -11 -24
-29 -51z m286 47 c-3 -5 -11 -10 -16 -10 -6 0 -7 5 -4 10 3 6 11 10 16 10 6 0
7 -4 4 -10z m655 -48 c25 -31 58 -75 74 -97 16 -22 32 -42 35 -45 4 -3 28 -40
55 -83 26 -42 72 -103 102 -135 29 -31 54 -62 54 -68 0 -24 160 -181 221 -217
35 -22 57 -37 49 -34 -8 3 -39 14 -69 24 -45 14 -64 29 -115 89 -33 39 -68 81
-76 94 -36 55 -140 178 -156 184 -9 4 -14 9 -11 13 5 4 -73 127 -114 177 -27
34 -109 148 -109 152 0 14 20 -4 60 -54z m-655 -202 c0 -20 -6 -26 -28 -28
-32 -4 -46 20 -26 44 19 24 54 14 54 -16z m405 15 c10 -12 10 -18 0 -30 -17
-20 -56 -19 -64 1 -14 36 39 59 64 29z m-1920 -105 c0 -5 -7 -10 -16 -10 -8 0
-12 5 -9 10 3 6 10 10 16 10 5 0 9 -4 9 -10z m3400 0 c0 -5 -4 -10 -10 -10 -5
0 -10 5 -10 10 0 6 5 10 10 10 6 0 10 -4 10 -10z m-2240 -80 c0 -5 -5 -10 -11
-10 -5 0 -7 5 -4 10 3 6 8 10 11 10 2 0 4 -4 4 -10z m-30 -30 c0 -5 -4 -10
-10 -10 -5 0 -10 5 -10 10 0 6 5 10 10 10 6 0 10 -4 10 -10z m1140 0 c0 -5 -4
-10 -10 -10 -5 0 -10 5 -10 10 0 6 5 10 10 10 6 0 10 -4 10 -10z m-1270 -30
c0 -5 -5 -10 -11 -10 -5 0 -7 5 -4 10 3 6 8 10 11 10 2 0 4 -4 4 -10z m1427
-47 c-7 -6 -46 36 -47 51 0 5 12 -3 27 -18 14 -14 23 -29 20 -33z m-2517 17
c0 -5 -4 -10 -10 -10 -5 0 -10 5 -10 10 0 6 5 10 10 10 6 0 10 -4 10 -10z
m1052 -12 c-7 -7 -12 -8 -12 -2 0 14 12 26 19 19 2 -3 -1 -11 -7 -17z m2518
12 c0 -5 -4 -10 -10 -10 -5 0 -10 5 -10 10 0 6 5 10 10 10 6 0 10 -4 10 -10z
m-3460 -50 c0 -5 -4 -10 -10 -10 -5 0 -10 5 -10 10 0 6 5 10 10 10 6 0 10 -4
10 -10z m3360 0 c0 -5 -4 -10 -10 -10 -5 0 -10 5 -10 10 0 6 5 10 10 10 6 0
10 -4 10 -10z m-3600 -80 c0 -5 -4 -10 -10 -10 -5 0 -10 5 -10 10 0 6 5 10 10
10 6 0 10 -4 10 -10z m3840 0 c0 -5 -4 -10 -10 -10 -5 0 -10 5 -10 10 0 6 5
10 10 10 6 0 10 -4 10 -10z m-3710 -20 c0 -5 -4 -10 -10 -10 -5 0 -10 5 -10
10 0 6 5 10 10 10 6 0 10 -4 10 -10z m3580 0 c0 -5 -7 -10 -16 -10 -8 0 -12 5
-9 10 3 6 10 10 16 10 5 0 9 -4 9 -10z m-2380 -170 c0 -5 -5 -10 -11 -10 -5 0
-7 5 -4 10 3 6 8 10 11 10 2 0 4 -4 4 -10z m1175 0 c3 -5 1 -10 -4 -10 -6 0
-11 5 -11 10 0 6 2 10 4 10 3 0 8 -4 11 -10z m-1742 -108 c-56 -48 -113 -73
-182 -79 -37 -3 -69 -10 -72 -15 -3 -5 -14 1 -24 12 -18 20 -18 20 27 20 46 0
146 25 163 41 5 5 18 9 30 9 11 0 34 9 50 20 42 28 46 24 8 -8z m2302 8 c17
-11 39 -20 51 -20 11 0 24 -4 30 -9 15 -15 115 -41 156 -41 40 0 48 -10 23
-30 -8 -7 -15 -8 -15 -3 0 6 -31 13 -68 16 -41 3 -83 14 -105 26 -58 33 -117
71 -117 76 0 10 16 5 45 -15z m-3086 -33 c16 -20 25 -74 13 -81 -23 -14 -39 5
-38 49 0 47 6 54 25 32z m3424 -17 c-28 -31 -39 -39 -27 -17 13 22 37 47 46
47 4 0 -4 -13 -19 -30z m463 -14 c2 -48 -18 -68 -43 -44 -10 11 -10 20 4 51
23 49 38 47 39 -7z m-4112 -12 c20 -7 21 -20 3 -27 -19 -7 -41 8 -33 22 8 13
9 13 30 5z m4342 -5 c9 -15 -13 -28 -37 -22 -15 4 -17 8 -8 19 14 17 35 18 45
3z m-3386 -24 c8 -9 8 -15 2 -15 -18 0 -42 12 -42 21 0 14 26 10 40 -6z m2428
3 c-3 -7 -12 -14 -21 -16 -12 -2 -15 1 -11 12 7 19 38 22 32 4z m-3421 -203
c9 -25 -2 -27 -22 -5 -17 18 -17 20 -1 20 9 0 19 -7 23 -15z m4408 -5 c-19
-21 -37 -18 -28 5 3 8 14 15 26 15 19 0 19 -1 2 -20z m-3505 -21 c0 -6 -4 -7
-10 -4 -5 3 -10 11 -10 16 0 6 5 7 10 4 6 -3 10 -11 10 -16z m2588 -9 c-15
-24 -22 -19 -13 9 3 12 11 19 16 16 5 -4 3 -14 -3 -25z m-3529 -19 c9 -6 10
-11 2 -15 -13 -8 -31 1 -31 15 0 11 11 11 29 0z m4491 0 c0 -14 -18 -23 -30
-16 -6 4 -8 11 -5 16 8 12 35 12 35 0z m-3523 -33 c-3 -8 -6 -5 -6 6 -1 11 2
17 5 13 3 -3 4 -12 1 -19z"/>
<path d="M2490 6367 c-3 -3 -25 -8 -50 -10 -25 -3 -79 -17 -120 -31 -41 -14
-82 -26 -92 -26 -10 0 -18 -4 -18 -9 0 -4 -30 -23 -67 -40 -38 -18 -90 -45
-118 -59 -64 -35 -60 -35 205 -23 200 8 207 9 307 45 69 25 126 38 182 43 45
3 81 10 81 14 0 5 -4 9 -8 9 -5 0 -17 8 -28 18 -52 46 -63 53 -85 58 -40 8
-184 17 -189 11z"/>
<path d="M3863 6357 c-34 -8 -71 -26 -103 -52 l-51 -40 43 -3 c85 -5 172 -24
262 -56 90 -34 93 -34 311 -40 l220 -6 -55 31 c-156 87 -290 143 -395 165 -52
11 -185 12 -232 1z"/>
<path d="M2075 6130 c-151 -6 -175 -9 -212 -29 -23 -12 -49 -24 -57 -25 -7 -1
-32 -15 -55 -30 -49 -34 -131 -48 -131 -22 0 9 3 16 8 16 4 0 41 18 82 41 l75
40 -168 -5 -168 -5 -57 -50 c-98 -86 -153 -167 -169 -252 -4 -21 0 -27 17 -32
17 -4 21 -12 18 -39 -3 -30 -6 -33 -35 -33 -30 0 -33 -3 -33 -30 0 -16 -3 -40
-6 -52 -5 -17 -2 -23 10 -23 9 0 16 -4 16 -10 0 -5 -7 -10 -15 -10 -11 0 -15
-12 -16 -42 -3 -100 2 -163 13 -169 8 -5 6 -13 -7 -26 -18 -17 -17 -18 56 -24
41 -4 118 -7 172 -8 l97 -1 2 93 c3 129 4 138 18 172 44 107 74 141 197 224
50 33 94 61 97 61 2 0 43 24 89 53 47 29 103 59 126 67 22 7 41 17 41 21 0 10
215 119 235 119 8 0 15 4 15 9 0 9 -9 9 -255 1z m-535 -183 c0 -7 -13 -21 -30
-30 -16 -10 -49 -37 -73 -60 -25 -23 -60 -55 -78 -70 -19 -15 -39 -38 -46 -50
l-12 -22 -1 24 c0 25 102 134 179 189 48 35 61 39 61 19z m37 -74 c4 -12 -34
-29 -44 -19 -3 3 -3 12 1 21 7 18 37 17 43 -2z m-310 -376 c-8 -94 -8 -120 2
-127 9 -5 10 -10 2 -14 -27 -17 -34 7 -27 98 10 128 18 178 26 169 4 -4 3 -61
-3 -126z m196 95 c-1 -30 -49 -119 -58 -110 -2 2 2 23 10 46 8 23 12 55 8 73
-5 28 -4 30 18 27 20 -2 24 -8 22 -36z"/>
<path d="M4190 6133 c0 -1 56 -30 125 -64 69 -34 125 -66 125 -71 0 -4 6 -8
13 -8 20 0 67 -25 197 -103 243 -148 274 -174 322 -277 26 -56 31 -78 36 -182
l5 -118 42 0 c110 0 285 14 285 23 0 5 -8 16 -17 23 -17 13 -17 13 1 14 17 0
18 8 14 100 -3 85 -7 102 -23 115 -19 14 -19 14 -1 15 15 0 17 5 12 31 -3 17
-6 40 -6 50 0 13 -7 19 -23 19 -49 0 -68 64 -22 76 29 7 33 38 10 68 -8 11
-15 29 -15 39 0 25 -56 96 -134 169 l-61 56 -120 7 c-66 4 -142 5 -168 3 l-49
-3 78 -41 c88 -47 102 -64 52 -64 -30 0 -60 11 -123 47 -11 7 -51 25 -90 42
-69 29 -74 30 -267 34 -109 1 -198 2 -198 0z m835 -196 c95 -64 196 -173 195
-209 -1 -7 -6 -4 -13 8 -7 11 -30 36 -51 55 -22 19 -60 53 -85 77 -25 23 -50
42 -55 42 -12 0 -46 31 -46 42 0 14 20 9 55 -15z m-40 -67 c0 -22 -39 -19 -43
3 -3 15 1 18 20 15 12 -2 23 -10 23 -18z m111 -295 c0 -30 5 -60 12 -67 18
-18 14 -32 -5 -17 -9 8 -27 36 -39 64 -24 51 -19 75 15 75 14 0 17 -10 17 -55z
m166 18 c2 -20 6 -83 7 -140 2 -88 0 -103 -13 -103 -9 0 -16 5 -16 10 0 6 5
10 11 10 12 0 8 109 -7 218 -4 25 -2 42 4 42 5 0 12 -17 14 -37z"/>
<path d="M3093 4549 c-29 -4 -64 -10 -77 -13 -26 -7 -226 -211 -226 -232 0 -7
-6 -19 -13 -26 -23 -25 -45 -64 -56 -104 -11 -39 -51 -232 -51 -247 0 -4 28
-7 62 -5 l63 3 7 45 c13 91 19 112 45 163 36 70 110 157 145 169 15 6 28 14
28 19 0 5 15 9 34 9 21 0 36 6 40 15 4 12 32 15 166 15 136 0 160 -2 160 -15
0 -10 10 -15 34 -15 18 0 39 -7 46 -15 7 -8 20 -15 30 -15 25 0 112 -105 144
-174 22 -46 45 -139 46 -178 0 -28 1 -28 65 -28 36 0 65 4 65 9 0 14 -38 193
-49 229 -39 130 -230 358 -319 382 -49 13 -313 19 -389 9z m147 -59 c0 -5 -2
-10 -4 -10 -3 0 -8 5 -11 10 -3 6 -1 10 4 10 6 0 11 -4 11 -10z m55 0 c-3 -5
-11 -10 -16 -10 -6 0 -7 5 -4 10 3 6 11 10 16 10 6 0 7 -4 4 -10z"/>
<path d="M2680 3868 c26 -109 37 -141 72 -210 56 -108 110 -159 209 -197 105
-40 165 -48 334 -45 119 2 152 6 217 27 76 26 115 46 152 79 11 10 23 18 28
18 4 0 8 7 8 15 0 8 4 15 9 15 24 0 131 251 131 307 0 21 -4 23 -60 23 -57 0
-60 -1 -60 -25 0 -13 -8 -48 -18 -77 -11 -29 -27 -78 -37 -108 -33 -102 -104
-153 -241 -175 -112 -17 -223 -17 -329 0 -141 23 -208 73 -244 185 -12 36 -26
73 -32 83 -5 10 -13 41 -16 68 l-6 49 -62 0 -63 0 8 -32z"/>
<path d="M2118 3885 c-2 -2 -107 -5 -233 -7 -127 -1 -282 -4 -345 -6 l-116 -4
49 -96 c27 -53 67 -125 90 -160 l42 -63 110 1 c176 3 225 1 225 -9 0 -5 -69
-11 -154 -13 -85 -1 -157 -6 -161 -10 -4 -3 21 -63 54 -132 34 -70 61 -131 61
-137 0 -6 5 -20 12 -32 37 -67 169 -472 189 -577 21 -117 28 -185 19 -194 -7
-7 -10 1 -10 22 0 18 -4 32 -8 32 -7 0 -37 103 -48 165 -18 108 -205 605 -302
803 l-25 52 -58 0 -59 0 33 -52 c31 -49 96 -198 112 -258 4 -14 17 -50 30 -80
13 -30 30 -76 40 -102 14 -39 21 -48 41 -48 24 0 32 -14 14 -25 -5 -3 -7 -20
-4 -38 7 -38 44 -148 55 -162 5 -6 11 -31 15 -55 3 -25 19 -91 35 -148 16 -56
29 -115 29 -130 0 -15 9 -60 20 -101 21 -77 27 -161 12 -161 -15 0 -32 49 -37
108 -7 65 -41 226 -54 251 -5 9 -12 39 -15 66 -9 62 -32 142 -58 201 -10 25
-21 53 -23 63 -2 10 -12 38 -23 62 -11 24 -29 72 -40 106 -12 35 -32 84 -45
111 -13 26 -30 66 -37 87 -20 63 -125 279 -141 291 -10 9 -65 10 -191 7 l-177
-6 38 -51 c21 -28 53 -82 71 -121 78 -168 125 -262 144 -290 12 -16 29 -47 38
-67 l17 -38 116 0 c70 0 115 -4 115 -10 0 -6 -42 -10 -105 -10 -58 0 -105 -2
-105 -4 0 -2 12 -28 28 -57 15 -30 36 -74 46 -99 11 -25 29 -67 42 -95 96
-215 162 -473 164 -648 0 -49 2 -92 3 -95 1 -4 -2 -9 -8 -12 -6 -3 -13 34 -17
95 -11 173 -61 339 -182 612 -20 45 -36 86 -36 92 0 6 -3 11 -8 11 -4 0 -13
19 -20 42 -7 23 -25 68 -40 100 l-27 57 -95 1 c-85 0 -97 -2 -108 -20 -7 -11
-18 -20 -26 -20 -7 0 -19 -6 -25 -14 -11 -13 -311 -166 -325 -166 -4 0 -22 25
-42 56 -47 73 -65 94 -84 94 -22 1 -50 25 -50 44 0 9 -8 16 -20 16 -13 0 -20
-7 -20 -18 0 -21 -36 -40 -62 -35 -9 3 -23 15 -32 28 -11 17 -24 23 -45 23
l-30 -1 33 -39 c29 -34 34 -47 39 -117 4 -46 17 -106 32 -146 31 -84 31 -91
-2 -120 -16 -13 -24 -27 -20 -31 4 -5 12 -2 17 6 8 13 10 12 10 -2 0 -20 11
-23 26 -8 12 12 44 3 44 -11 0 -5 8 -9 17 -9 9 0 13 -3 9 -7 -3 -4 7 -20 23
-37 27 -28 30 -39 34 -118 3 -48 11 -123 17 -166 7 -43 10 -109 8 -145 -3 -63
-2 -66 17 -61 16 5 18 4 7 -7 -19 -21 -14 -45 13 -57 18 -8 25 -20 25 -38 0
-25 2 -26 40 -20 36 6 40 4 40 -14 0 -13 -7 -20 -19 -20 -11 0 -26 -3 -35 -6
-14 -5 -14 -8 1 -22 24 -25 99 -29 556 -31 l407 -2 0 23 c0 13 4 29 9 37 11
16 43 7 40 -11 -4 -30 2 -48 15 -48 14 0 36 94 36 153 0 41 10 57 36 57 13 0
29 9 36 20 15 24 48 27 48 3 0 -14 2 -15 18 -1 9 8 29 18 45 22 15 4 27 13 27
22 0 18 23 44 39 44 6 0 26 8 46 17 31 15 37 15 46 3 8 -13 12 -12 27 5 9 11
35 29 57 39 76 34 105 51 105 61 0 15 68 75 85 75 26 0 65 -23 65 -39 0 -14 2
-14 11 -1 8 12 10 9 6 -12 -2 -15 1 -29 7 -31 8 -3 7 -11 -2 -27 -13 -21 -12
-22 3 -16 14 5 17 2 13 -19 -3 -14 -1 -25 3 -25 5 0 9 -7 9 -16 0 -8 -5 -12
-11 -8 -21 13 3 -40 28 -62 20 -17 23 -26 18 -60 -3 -21 -1 -61 5 -89 6 -27
12 -63 14 -78 2 -16 9 -33 17 -38 27 -18 217 5 241 29 5 5 10 63 11 128 l2
119 -143 1 c-78 0 -145 4 -149 7 -3 4 21 7 55 7 34 0 62 3 62 8 0 4 39 6 87 5
49 -1 107 2 130 6 l41 8 30 -61 c17 -34 35 -77 41 -97 6 -20 20 -45 31 -57 14
-14 20 -35 20 -65 l0 -44 53 -7 c67 -8 247 -8 315 0 l52 7 0 44 c0 30 6 51 20
66 11 12 27 42 34 67 7 25 25 65 39 90 l25 45 127 -2 c70 -1 130 -5 133 -8 3
-3 32 -5 65 -5 33 0 57 -3 53 -7 -4 -4 -71 -8 -149 -8 l-142 0 2 -124 c1 -68
4 -125 6 -127 7 -8 103 -26 159 -31 69 -6 98 8 98 45 0 16 5 33 12 40 6 6 11
45 11 97 0 59 4 85 12 85 6 0 18 12 25 28 8 15 16 31 19 36 2 5 -1 6 -7 2 -7
-4 -12 -1 -12 9 0 9 4 13 10 10 6 -4 7 6 3 26 -5 25 -3 30 7 24 10 -6 12 -4 6
10 -9 25 4 91 15 73 7 -11 9 -11 9 1 0 19 30 40 57 41 23 0 93 -57 93 -76 0
-11 120 -74 140 -74 5 0 10 -6 10 -14 0 -21 19 -30 35 -16 10 9 25 7 60 -5 52
-17 71 -32 77 -61 2 -12 13 -20 31 -22 16 -2 31 -10 34 -18 7 -19 23 -18 23 1
0 22 38 18 45 -5 4 -14 15 -20 35 -20 33 0 35 -4 45 -105 9 -84 15 -105 31
-105 9 0 14 12 14 35 0 28 4 35 20 35 16 0 20 -7 20 -36 l0 -36 470 4 c463 3
470 4 491 25 l21 21 -31 7 c-22 5 -31 12 -31 26 0 17 5 19 35 13 31 -6 35 -4
35 15 0 14 11 28 30 39 30 17 38 36 20 47 -14 9 -12 25 3 25 9 0 13 28 15 103
2 56 10 145 18 197 7 52 14 111 14 130 0 24 9 45 30 68 16 17 34 32 39 32 5 0
11 7 15 15 3 8 12 15 19 15 8 0 20 -7 27 -15 7 -8 29 -15 48 -15 l36 0 -37 35
c-20 19 -42 35 -47 35 -13 0 -13 33 -1 46 21 21 50 135 53 204 2 66 5 76 35
109 18 20 33 38 33 41 0 3 -13 6 -29 7 -21 1 -32 -4 -41 -22 -7 -14 -21 -27
-31 -30 -23 -8 -59 15 -59 37 0 11 -8 18 -20 18 -13 0 -20 -7 -20 -18 0 -13
-13 -24 -39 -34 -30 -12 -50 -32 -86 -87 -26 -39 -49 -71 -52 -71 -15 0 -310
150 -322 163 -7 10 -19 17 -26 17 -6 0 -20 9 -30 20 -16 17 -31 20 -109 20
l-91 0 -29 -62 c-46 -101 -77 -172 -143 -333 -13 -33 -35 -85 -49 -117 -37
-84 -94 -323 -95 -398 0 -36 -4 -76 -9 -90 -14 -48 -23 7 -16 103 12 170 64
393 126 542 9 22 27 65 39 95 27 63 86 192 107 233 l15 27 -105 0 c-64 0 -106
4 -106 10 0 6 45 10 114 10 l114 0 22 48 c12 26 28 54 35 62 18 21 100 186
120 243 9 26 20 47 25 47 4 0 11 12 15 27 3 15 19 43 34 62 16 20 33 46 40 59
l12 22 -104 0 c-57 0 -138 3 -180 6 l-77 7 -69 -144 c-67 -141 -136 -304 -161
-384 -7 -22 -23 -64 -36 -92 -13 -29 -25 -63 -28 -77 -2 -13 -11 -37 -19 -52
-20 -39 -44 -128 -53 -189 -3 -27 -10 -57 -14 -66 -17 -30 -73 -296 -66 -308
3 -4 -5 -18 -16 -31 l-20 -25 6 82 c4 45 13 100 21 123 8 24 15 57 15 76 0 18
5 45 10 60 6 15 13 43 16 63 8 51 43 180 55 203 10 18 26 71 48 155 6 24 5 33
-5 37 -23 9 -16 24 12 28 24 3 31 16 76 133 28 72 59 148 69 171 11 22 19 48
19 56 0 9 20 51 45 92 25 42 45 79 45 81 0 3 -24 5 -54 5 l-55 0 -35 -72 c-43
-87 -166 -384 -172 -414 -2 -12 -11 -35 -19 -50 -8 -16 -15 -37 -15 -46 0 -9
-4 -19 -9 -22 -7 -4 -22 -57 -20 -69 0 -1 -5 -15 -11 -32 -20 -51 -70 -229
-70 -250 0 -11 -7 -33 -15 -49 -8 -15 -15 -37 -15 -47 0 -10 -5 -21 -11 -25
-21 -13 7 219 30 251 9 12 33 91 36 120 6 45 78 253 135 390 4 11 14 36 21 55
7 19 36 84 65 145 29 60 50 112 48 115 -3 3 -75 7 -160 8 -85 2 -154 8 -154
13 0 10 49 12 226 9 l111 -1 40 68 c23 37 63 109 91 159 l49 92 -221 6 c-121
4 -381 8 -576 9 l-355 2 -6 -55 c-12 -111 -54 -212 -120 -288 -16 -18 -29 -42
-29 -53 0 -11 -5 -17 -10 -14 -6 4 -24 -5 -42 -20 -50 -42 -140 -83 -214 -97
-89 -17 -467 -16 -544 1 -62 14 -138 50 -190 89 -19 15 -42 27 -50 27 -8 1
-14 7 -12 14 1 7 -18 40 -44 74 -58 77 -80 128 -95 215 -6 37 -13 77 -15 90
l-4 22 -224 0 c-123 -1 -226 -3 -228 -5z m-163 -76 c0 -8 -10 -15 -22 -17 -25
-4 -30 7 -11 26 15 15 33 10 33 -9z m2643 9 c17 -17 15 -28 -7 -28 -22 0 -35
15 -26 30 8 13 18 13 33 -2z m-2601 -24 c-9 -9 -28 6 -21 18 4 6 10 6 17 -1 6
-6 8 -13 4 -17z m2543 11 c0 -8 -4 -15 -10 -15 -5 0 -10 7 -10 15 0 8 5 15 10
15 6 0 10 -7 10 -15z m-2408 -46 c13 -22 32 -58 43 -78 11 -21 25 -45 32 -52
6 -8 26 -43 45 -79 18 -36 39 -74 45 -85 44 -78 111 -256 104 -279 -1 -5 3
-12 8 -16 6 -3 15 -28 21 -56 6 -27 19 -87 29 -134 33 -146 13 -109 -52 100
-25 80 -67 192 -92 250 -59 134 -63 142 -74 160 -30 50 -81 161 -81 178 0 11
-4 22 -8 24 -13 5 -62 108 -52 108 5 0 20 -18 32 -41z m2270 -11 c-14 -29 -31
-57 -39 -61 -7 -5 -11 -13 -7 -18 3 -5 -29 -78 -70 -163 -42 -84 -76 -158 -76
-165 0 -13 -39 -93 -49 -101 -3 -3 -8 -12 -10 -20 -2 -8 -14 -51 -28 -95 -13
-44 -33 -108 -43 -142 -23 -79 -42 -114 -35 -63 12 74 58 245 67 251 6 4 8 12
4 17 -18 29 144 375 244 522 9 14 24 40 34 58 28 53 35 36 8 -20z m-2702 -3
c0 -8 -4 -15 -10 -15 -5 0 -10 7 -10 15 0 8 5 15 10 15 6 0 10 -7 10 -15z
m3137 -11 c-9 -9 -28 6 -21 18 4 6 10 6 17 -1 6 -6 8 -13 4 -17z m-2947 -354
c0 -5 -4 -10 -10 -10 -5 0 -10 5 -10 10 0 6 5 10 10 10 6 0 10 -4 10 -10z
m2760 0 c0 -5 -4 -10 -10 -10 -5 0 -10 5 -10 10 0 6 5 10 10 10 6 0 10 -4 10
-10z m-1610 -270 c0 -5 -4 -10 -10 -10 -5 0 -10 5 -10 10 0 6 5 10 10 10 6 0
10 -4 10 -10z m1470 -50 c0 -5 -4 -10 -10 -10 -5 0 -10 5 -10 10 0 6 5 10 10
10 6 0 10 -4 10 -10z m-1120 -69 c65 -18 111 -38 127 -54 13 -12 -1 -10 -57 9
-95 34 -109 36 -205 36 -91 0 -95 -1 -194 -35 -66 -23 -71 -24 -55 -6 9 10 25
19 34 19 9 0 21 5 27 11 31 31 238 44 323 20z m-1270 -57 c0 -8 -7 -14 -15
-14 -15 0 -21 21 -9 33 10 9 24 -2 24 -19z m2310 1 c0 -7 -7 -15 -15 -19 -15
-5 -22 24 -9 37 9 9 24 -2 24 -18z m-735 -32 c-22 -15 -28 -12 -19 10 3 9 12
13 21 10 14 -5 13 -8 -2 -20z m-848 0 c3 -7 -3 -9 -16 -6 -12 3 -21 10 -21 15
0 13 32 6 37 -9z m-600 -87 c-8 -21 -47 -21 -47 -1 0 9 6 22 13 30 10 11 14
11 26 0 7 -7 11 -21 8 -29z m2073 0 c0 -21 -46 -21 -54 0 -9 24 23 46 41 28 7
-7 13 -20 13 -28z m-3155 -23 c10 -27 34 -82 55 -123 20 -41 43 -93 50 -115 7
-22 21 -56 31 -75 11 -19 19 -43 19 -52 0 -10 5 -26 10 -36 24 -39 70 -238 54
-231 -5 2 -47 23 -94 45 -47 23 -98 47 -113 53 -20 8 -27 16 -23 27 4 12 1 14
-14 9 -19 -6 -35 1 -180 82 -14 8 -47 28 -75 44 -27 17 -58 33 -67 35 -11 4
-19 22 -23 57 -4 29 -13 67 -21 86 -8 18 -14 39 -14 45 0 7 39 29 88 50 102
44 121 53 262 127 19 10 36 19 36 19 1 0 9 -21 19 -47z m4485 -91 c36 -16 75
-33 88 -37 26 -8 26 -10 8 -61 -7 -22 -17 -62 -20 -90 -7 -45 -11 -51 -44 -67
-20 -10 -55 -28 -77 -41 -184 -108 -201 -116 -222 -111 -16 4 -21 1 -18 -7 3
-8 -31 -30 -96 -60 -55 -27 -104 -48 -110 -48 -5 0 -9 -4 -9 -10 0 -5 -5 -10
-11 -10 -7 0 -9 14 -6 38 7 55 46 195 57 206 6 6 10 17 10 26 0 17 49 136 106
258 39 85 49 108 58 135 5 15 18 11 113 -37 60 -29 137 -67 173 -84z m-4327
92 c-3 -8 -9 -14 -13 -14 -11 0 -21 30 -14 41 9 15 34 -10 27 -27z m3907 18
c0 -4 -5 -14 -10 -22 -9 -13 -11 -13 -19 0 -6 9 -6 19 1 27 10 12 28 9 28 -5z
m-2410 -13 c0 -6 7 -9 15 -5 18 7 19 11 -5 -52 -11 -29 -20 -63 -20 -77 0 -16
-6 -25 -15 -25 -10 0 -15 -11 -15 -35 0 -19 -4 -35 -8 -35 -16 0 -12 73 8 153
11 44 20 81 20 83 0 2 5 4 10 4 6 0 10 -5 10 -11z m913 -55 c20 -62 30 -174
15 -174 -4 0 -8 16 -8 36 0 27 -4 35 -14 31 -11 -4 -18 12 -29 61 -9 37 -19
76 -23 87 -7 18 -6 19 11 5 17 -14 18 -13 12 3 -5 13 -3 17 5 15 7 -3 21 -31
31 -64z m187 50 c0 -2 -24 -3 -52 -3 -43 1 -47 3 -23 8 28 6 75 3 75 -5z
m-1247 -1 c-13 -2 -35 -2 -50 0 -16 2 -5 4 22 4 28 0 40 -2 28 -4z m544 -53
c-16 -5 -35 -14 -43 -21 -8 -6 -14 -7 -14 -2 0 18 25 33 55 32 l30 -1 -28 -8z
m124 0 c10 -6 19 -16 19 -22 0 -7 -4 -7 -12 -1 -7 6 -26 15 -43 21 -26 9 -27
11 -7 11 13 1 32 -4 43 -9z m-804 -22 c-3 -8 -6 -5 -6 6 -1 11 2 17 5 13 3 -3
4 -12 1 -19z m693 -8 c-11 -7 -6 -9 17 -7 18 1 33 5 33 10 0 4 8 7 19 7 18 0
111 -81 111 -97 0 -5 10 -26 21 -48 14 -25 24 -66 27 -107 4 -63 2 -71 -27
-117 -81 -126 -258 -127 -342 -1 -28 42 -30 50 -27 121 2 56 8 82 21 96 9 11
17 27 17 35 0 22 67 94 105 112 30 16 51 12 25 -4z m-112 -38 c-14 -15 -30
-36 -36 -47 -6 -11 -12 -15 -12 -9 0 15 61 96 68 89 3 -3 -6 -18 -20 -33z
m312 -26 c0 -5 -11 3 -25 18 -14 15 -25 32 -25 39 0 13 49 -43 50 -57z m-2863
35 c30 -25 73 -108 73 -140 0 -14 -5 -33 -10 -41 -8 -12 -16 -8 -44 25 -34 39
-56 99 -56 149 0 31 7 32 37 7z m5423 5 c0 -28 -38 -135 -54 -151 -8 -9 -20
-24 -26 -33 -8 -15 -11 -15 -20 -2 -24 36 1 114 52 168 35 35 48 40 48 18z
m-3453 -38 c-3 -7 -5 -2 -5 12 0 14 2 19 5 13 2 -7 2 -19 0 -25z m-972 -7 c3
-5 1 -12 -5 -16 -5 -3 -10 1 -10 9 0 18 6 21 15 7z m3405 -1 c0 -5 -5 -10 -11
-10 -5 0 -7 5 -4 10 3 6 8 10 11 10 2 0 4 -4 4 -10z m-1510 -45 c0 -5 -5 -3
-10 5 -5 8 -10 20 -10 25 0 6 5 3 10 -5 5 -8 10 -19 10 -25z m-2700 5 c0 -5
-4 -10 -10 -10 -5 0 -10 5 -10 10 0 6 5 10 10 10 6 0 10 -4 10 -10z m5020 0
c0 -5 -4 -10 -10 -10 -5 0 -10 5 -10 10 0 6 5 10 10 10 6 0 10 -4 10 -10z
m-2970 -26 c0 -14 -4 -23 -10 -19 -5 3 -10 15 -10 26 0 10 5 19 10 19 6 0 10
-12 10 -26z m910 -1 c0 -19 -3 -24 -10 -17 -6 6 -8 18 -4 27 9 24 14 21 14
-10z m-3030 2 c0 -8 -4 -15 -10 -15 -5 0 -10 7 -10 15 0 8 5 15 10 15 6 0 10
-7 10 -15z m1845 6 c3 -5 1 -12 -5 -16 -5 -3 -10 1 -10 9 0 18 6 21 15 7z
m1465 -6 c0 -8 -4 -15 -10 -15 -5 0 -10 7 -10 15 0 8 5 15 10 15 6 0 10 -7 10
-15z m1850 0 c0 -8 -4 -15 -10 -15 -5 0 -10 7 -10 15 0 8 5 15 10 15 6 0 10
-7 10 -15z m-3070 -94 c0 -31 5 -53 15 -61 18 -15 18 -15 5 30 -5 19 -7 44 -3
55 4 13 14 -14 29 -84 12 -58 19 -111 16 -119 -3 -10 -1 -13 6 -9 7 5 15 -13
22 -50 6 -32 14 -65 17 -73 3 -8 9 -29 13 -47 6 -25 5 -30 -6 -26 -18 7 -17 4
2 -42 8 -20 13 -42 11 -48 -3 -7 -8 -3 -12 8 -4 11 -24 63 -45 115 -45 115
-57 151 -65 210 -13 97 -20 198 -13 194 4 -3 8 -27 8 -53z m973 17 c-10 -132
-39 -252 -95 -393 -23 -58 -44 -84 -34 -43 3 14 1 28 -4 30 -6 2 -5 23 5 58 8
30 20 76 26 103 7 29 15 45 22 40 7 -4 8 0 4 11 -4 9 -2 38 4 64 14 58 17 78
18 120 1 17 6 32 12 32 8 0 10 -18 6 -55 -4 -47 -3 -54 9 -44 8 7 14 30 14 59
0 38 5 60 14 60 1 0 0 -19 -1 -42z m-3183 28 c0 -3 -4 -8 -10 -11 -5 -3 -10
-1 -10 4 0 6 5 11 10 11 6 0 10 -2 10 -4z m5400 -6 c0 -5 -4 -10 -10 -10 -5 0
-10 5 -10 10 0 6 5 10 10 10 6 0 10 -4 10 -10z m-3450 -14 c0 -20 -32 -117
-37 -112 -7 7 21 126 29 126 4 0 8 -6 8 -14z m1501 -28 c21 -78 28 -111 19
-102 -9 10 -40 110 -40 131 0 26 9 12 21 -29z m2049 -18 c0 -5 -4 -10 -10 -10
-5 0 -10 5 -10 10 0 6 5 10 10 10 6 0 10 -4 10 -10z m-5315 -10 c3 -5 2 -10
-4 -10 -5 0 -13 5 -16 10 -3 6 -2 10 4 10 5 0 13 -4 16 -10z m5030 0 c-3 -5
-10 -10 -16 -10 -5 0 -9 5 -9 10 0 6 7 10 16 10 8 0 12 -4 9 -10z m-2285 -30
c0 -5 -5 -10 -11 -10 -5 0 -7 5 -4 10 3 6 8 10 11 10 2 0 4 -4 4 -10z m-2525
-121 c22 -12 64 -35 93 -51 29 -15 111 -64 183 -108 73 -44 136 -80 142 -80
14 0 1 -148 -18 -208 -9 -26 -31 -65 -49 -86 -59 -65 -210 -90 -381 -61 -54 9
-81 23 -151 80 l-60 47 -18 142 c-10 77 -24 168 -32 201 -7 33 -14 83 -14 112
0 49 2 52 29 58 16 3 44 21 63 39 l33 33 70 -48 c39 -26 88 -57 110 -70z
m4845 46 l32 -7 -6 -57 c-4 -31 -11 -78 -16 -106 -5 -27 -17 -115 -27 -195
-19 -162 -11 -148 -123 -224 -67 -46 -94 -54 -215 -63 -51 -3 -93 1 -154 16
-73 17 -90 25 -120 59 -42 45 -60 104 -68 212 l-5 75 56 30 c31 17 56 33 56
37 0 4 10 10 22 14 12 3 47 23 77 43 31 19 83 50 116 67 82 43 149 83 219 131
l58 41 34 -33 c18 -18 47 -36 64 -40z m-3821 -83 c6 -40 10 -118 10 -175 l-2
-102 -8 117 c-4 64 -15 156 -23 204 -8 48 -12 92 -8 98 7 11 12 -13 31 -142z
m2556 118 c-7 -12 -28 -179 -35 -285 l-7 -110 -1 102 c-1 56 2 135 8 175 5 40
11 89 14 108 2 19 5 37 5 40 1 3 5 -2 10 -10 6 -8 8 -17 6 -20z m-1465 -79
c19 -22 41 -41 48 -41 6 0 12 -4 12 -10 0 -13 -6 -13 -33 3 -54 30 -88 81 -86
131 0 16 3 14 12 -10 7 -18 28 -50 47 -73z m390 43 c-16 -48 -37 -72 -79 -90
-46 -19 -49 -12 -8 16 36 25 76 77 82 107 5 28 6 29 12 16 2 -7 -1 -29 -7 -49z
m-160 -120 c0 -2 -12 -4 -26 -4 -14 0 -23 4 -20 9 6 8 46 4 46 -5z m-87 -1
c-7 -2 -19 -2 -25 0 -7 3 -2 5 12 5 14 0 19 -2 13 -5z m187 -124 c-59 -10
-240 -11 -310 -1 -55 7 -55 7 35 12 50 3 142 3 205 1 95 -3 107 -6 70 -12z
m1211 -58 c1 -47 -3 -77 -11 -84 -10 -10 -11 -5 -6 22 3 18 6 58 6 89 0 81 9
58 11 -27z m-2729 -8 c5 -78 3 -91 -8 -81 -11 12 -17 158 -7 158 6 0 13 -34
15 -77z m1117 -73 c25 -111 26 -139 5 -90 -17 38 -44 168 -43 203 0 21 1 21 9
2 4 -11 17 -63 29 -115z m521 103 c0 -24 -53 -223 -60 -223 -4 0 -2 26 5 58 7
31 19 83 26 115 7 31 17 57 21 57 4 0 8 -3 8 -7z m-299 -145 l-11 -33 5 40 c3
22 6 60 7 85 l2 45 3 -52 c2 -28 -1 -66 -6 -85z m39 80 c0 -29 3 -63 6 -75 4
-13 2 -23 -4 -23 -6 0 -12 32 -14 75 -2 41 0 75 5 75 4 0 7 -24 7 -52z m350
23 c0 -6 -4 -13 -10 -16 -5 -3 -10 1 -10 9 0 9 5 16 10 16 6 0 10 -4 10 -9z
m-890 -91 c0 -5 -4 -10 -10 -10 -5 0 -10 5 -10 10 0 6 5 10 10 10 6 0 10 -4
10 -10z m1054 -5 c-4 -8 -8 -15 -10 -15 -2 0 -4 7 -4 15 0 8 4 15 10 15 5 0 7
-7 4 -15z m-1054 -44 c0 -6 -4 -13 -10 -16 -5 -3 -10 1 -10 9 0 9 5 16 10 16
6 0 10 -4 10 -9z m1054 -6 c-4 -8 -8 -15 -10 -15 -2 0 -4 7 -4 15 0 8 4 15 10
15 5 0 7 -7 4 -15z m-574 -45 c12 -8 10 -10 -10 -9 -14 0 -50 -2 -80 -4 -59
-5 -83 0 -74 14 7 12 145 11 164 -1z m232 -5 c-1 -5 -26 -9 -55 -8 -28 2 -68
3 -87 3 -26 0 -31 3 -20 10 20 13 166 8 162 -5z m-712 -5 c0 -5 -4 -10 -10
-10 -5 0 -10 5 -10 10 0 6 5 10 10 10 6 0 10 -4 10 -10z"/>
<path d="M1260 3860 c-13 -8 -12 -12 6 -24 12 -9 27 -29 34 -46 7 -16 19 -30
26 -30 8 0 14 -8 14 -18 0 -10 8 -29 17 -42 22 -30 47 -74 68 -117 14 -31 18
-33 70 -33 54 0 54 0 45 25 -17 45 -52 109 -89 165 -20 30 -45 72 -54 93 -17
36 -20 37 -70 37 -29 0 -59 -5 -67 -10z m215 -210 c3 -5 1 -10 -4 -10 -6 0
-11 5 -11 10 0 6 2 10 4 10 3 0 8 -4 11 -10z"/>
<path d="M5089 3783 c-29 -48 -69 -121 -89 -160 l-37 -73 58 0 c56 0 59 1 74
33 15 33 26 52 57 99 10 15 18 39 18 53 0 18 5 25 19 25 11 0 23 12 31 30 7
17 20 36 29 43 37 26 30 33 -39 35 l-68 3 -53 -88z m-29 -133 c0 -5 -4 -10
-10 -10 -5 0 -10 5 -10 10 0 6 5 10 10 10 6 0 10 -4 10 -10z m10 -50 c0 -5 -4
-10 -10 -10 -5 0 -10 5 -10 10 0 6 5 10 10 10 6 0 10 -4 10 -10z"/>
<path d="M787 3853 l-27 -4 29 -42 c16 -23 57 -71 93 -107 35 -36 77 -83 93
-105 17 -22 34 -43 40 -48 5 -4 94 -7 198 -6 170 2 186 4 175 18 -7 9 -19 27
-26 40 -8 13 -23 40 -34 60 -44 79 -54 87 -92 83 -31 -4 -36 -1 -36 16 0 12 5
24 10 27 19 12 10 34 -24 54 -31 19 -47 21 -202 20 -93 -1 -181 -4 -197 -6z"/>
<path d="M5325 3835 c-26 -22 -28 -27 -17 -45 24 -38 16 -52 -27 -48 l-40 3
-45 -76 c-26 -42 -46 -80 -46 -85 0 -4 -7 -15 -15 -24 -13 -15 0 -16 170 -19
208 -3 187 -10 265 88 19 24 41 49 48 55 7 6 21 19 30 30 9 10 29 30 45 44 15
14 27 31 27 37 0 7 9 20 21 31 l21 19 -28 6 c-16 4 -108 7 -204 7 -171 1 -176
1 -205 -23z"/>
<path d="M290 3843 c-25 -2 -82 -5 -126 -9 l-82 -6 -16 -36 c-36 -84 -56 -159
-56 -209 l0 -53 39 0 c53 0 91 16 91 37 0 10 11 53 24 97 24 76 64 136 93 136
7 0 10 6 7 15 -4 8 -1 15 5 15 6 0 11 -6 11 -12 0 -9 21 -14 63 -16 34 -1 85
-9 112 -17 l50 -14 0 -111 c0 -114 6 -131 44 -125 13 1 17 17 19 78 2 57 6 77
17 77 7 0 49 -34 93 -75 l80 -75 101 0 c82 0 101 3 101 15 0 7 -6 18 -13 22
-8 4 -22 20 -32 36 -9 15 -25 26 -34 25 -12 -2 -16 5 -15 26 1 80 -235 235
-260 171 -7 -20 -46 -19 -46 1 0 13 -16 15 -112 12 -62 -2 -133 -4 -158 -5z"/>
<path d="M5800 3827 c-19 -12 -61 -47 -92 -77 -48 -46 -58 -62 -58 -89 0 -25
-4 -32 -15 -28 -15 6 -75 -58 -75 -80 0 -10 26 -13 102 -13 l102 0 46 48 c57
60 118 107 128 98 4 -4 6 -39 4 -77 l-3 -69 34 0 c33 0 34 2 41 46 9 66 8 129
-3 157 -9 23 -7 26 43 41 29 9 82 18 118 19 37 1 66 4 65 7 -1 3 3 5 8 5 6 0
9 -3 8 -7 -2 -5 1 -8 6 -8 5 0 23 -12 40 -26 23 -19 37 -46 56 -108 14 -45 25
-91 25 -103 0 -16 8 -22 38 -27 20 -3 49 -6 65 -6 26 0 27 2 27 48 0 51 -44
197 -69 231 -19 25 -44 28 -297 36 -159 6 -182 4 -187 -9 -8 -20 -47 -21 -47
-1 0 23 -68 18 -110 -8z"/>
<path d="M790 3494 c0 -4 23 -33 50 -65 28 -32 50 -63 50 -71 0 -7 15 -32 34
-55 25 -32 36 -39 44 -31 7 7 12 15 12 19 0 4 13 22 29 40 25 27 32 30 45 19
18 -14 21 -40 6 -40 -5 0 -10 -10 -10 -22 1 -49 -7 -72 -28 -81 -26 -12 -27
-20 -8 -36 8 -7 18 -26 21 -42 4 -16 11 -32 17 -35 11 -7 47 -87 54 -118 6
-33 18 -37 108 -34 l86 3 -21 40 c-33 64 -101 177 -126 211 -12 17 -36 59 -53
95 -16 35 -49 96 -72 134 l-43 70 -98 3 c-53 1 -97 0 -97 -4z"/>
<path d="M5493 3431 c-43 -69 -51 -87 -33 -76 11 7 50 -12 50 -24 0 -5 12 -23
27 -39 l26 -31 34 47 c18 26 33 51 33 55 0 5 6 14 13 22 6 7 21 25 31 40 11
14 28 36 38 47 10 12 18 23 18 25 0 1 -44 3 -97 3 l-98 -1 -42 -68z"/>
<path d="M514 3429 c3 -34 6 -156 6 -270 0 -170 3 -209 14 -209 26 0 39 204
14 213 -10 3 -9 8 2 22 11 14 16 52 18 162 l3 143 -32 0 -32 0 7 -61z"/>
<path d="M5946 3383 c3 -60 8 -128 11 -153 3 -25 5 -98 6 -162 0 -109 1 -118
18 -118 18 0 19 11 19 209 0 114 3 236 6 270 l7 61 -36 0 -37 0 6 -107z"/>
<path d="M10 3405 c0 -83 4 -87 67 -64 25 8 32 17 35 45 2 19 0 34 -5 34 -5 0
-7 14 -5 30 5 30 4 30 -44 30 l-48 0 0 -75z"/>
<path d="M6417 3450 c3 -19 1 -30 -5 -30 -8 0 -9 -12 -5 -32 7 -41 1 -35 56
-52 l47 -14 0 79 0 79 -50 0 -49 0 6 -30z"/>
<path d="M5421 3296 c-10 -24 -39 -75 -63 -112 -52 -80 -122 -201 -131 -226
-6 -16 2 -18 83 -18 56 0 90 4 90 11 0 5 25 62 56 126 54 113 55 116 35 129
-12 9 -22 31 -27 59 -3 25 -10 48 -15 51 -5 3 -7 10 -4 15 4 5 4 9 1 9 -3 0
-14 -20 -25 -44z"/>
<path d="M25 3233 c10 -95 33 -193 51 -210 7 -8 14 -27 14 -42 0 -25 4 -28 30
-27 l31 1 -6 75 c-3 41 -8 83 -11 93 -6 18 4 22 21 9 6 -4 26 -27 45 -52 19
-24 42 -52 50 -61 8 -8 25 -28 37 -42 16 -19 32 -27 55 -27 l32 0 -35 37 c-18
20 -39 42 -45 48 -5 5 -23 28 -39 50 -16 22 -32 42 -35 45 -19 16 -100 141
-100 154 0 13 -11 16 -51 16 l-51 0 7 -67z"/>
<path d="M6400 3284 c0 -9 -13 -33 -28 -53 -15 -20 -34 -46 -42 -57 -38 -55
-107 -143 -142 -179 l-38 -40 27 -3 c21 -3 35 4 58 30 61 70 85 100 85 108 0
10 49 50 60 50 4 0 4 -20 -1 -44 -4 -24 -10 -66 -12 -92 l-5 -49 32 -1 c27 0
31 3 32 28 1 16 9 37 18 47 20 22 41 107 50 204 l7 67 -51 0 c-39 0 -50 -3
-50 -16z"/>
<path d="M115 2878 c3 -13 11 -45 17 -73 5 -27 13 -54 18 -60 4 -5 19 -41 33
-80 14 -38 41 -108 61 -155 30 -72 39 -85 61 -88 14 -2 25 -1 25 1 0 2 -25 69
-56 148 -30 79 -69 186 -86 237 -28 83 -33 92 -56 92 -21 0 -23 -3 -17 -22z"/>
<path d="M6356 2888 c-15 -51 -52 -157 -105 -298 -33 -90 -61 -166 -61 -167 0
-2 11 -3 25 -3 16 0 28 7 31 18 13 42 67 178 74 187 12 16 50 124 65 185 8 30
17 63 20 73 6 13 2 17 -19 17 -15 0 -28 -6 -30 -12z"/>
<path d="M328 2391 l-37 -6 48 -90 c27 -53 56 -94 69 -100 12 -5 22 -15 22
-21 0 -7 7 -14 15 -18 23 -8 19 6 -30 97 -25 47 -45 91 -45 97 0 7 10 21 22
31 l21 19 -24 -1 c-13 -1 -41 -5 -61 -8z"/>
<path d="M6129 2379 c12 -13 21 -27 21 -32 0 -5 -21 -47 -46 -94 -25 -46 -43
-87 -39 -91 4 -4 12 0 18 9 7 8 19 18 28 21 9 4 27 26 39 50 41 75 72 140 68
143 -2 1 -27 5 -56 9 l-54 7 21 -22z"/>
<path d="M1000 1621 c-19 -5 -29 -9 -22 -10 7 0 12 -16 12 -41 0 -37 3 -42 37
-58 52 -24 81 -54 86 -87 2 -16 11 -34 21 -39 13 -9 21 -6 36 14 23 30 28 26
50 -42 9 -29 21 -53 26 -53 5 0 10 32 12 70 l3 70 62 17 c34 9 73 20 86 24 23
7 24 6 19 -54 -5 -67 -8 -63 57 -66 l30 -1 -4 -202 c-2 -110 0 -207 5 -214 10
-16 10 -22 19 -242 5 -126 10 -166 19 -157 7 7 13 76 16 190 5 167 4 180 -12
180 -13 0 -18 8 -18 25 0 18 5 25 20 25 24 0 24 4 9 165 -11 103 -10 134 4
216 10 53 17 124 17 158 0 48 3 61 15 61 11 0 15 -12 15 -47 0 -57 32 -118 45
-86 4 10 9 48 10 84 2 36 6 76 10 89 l7 23 -208 -7 c-293 -11 -301 -11 -379
-4 -38 4 -86 3 -105 -1z m150 -95 c0 -3 -4 -8 -10 -11 -5 -3 -10 -1 -10 4 0 6
5 11 10 11 6 0 10 -2 10 -4z"/>
<path d="M2617 1570 c-8 -68 -2 -90 23 -90 23 0 34 15 49 70 7 25 15 53 17 63
5 14 -2 17 -39 17 l-44 0 -6 -60z"/>
<path d="M3052 1610 c-28 -26 -28 -40 -2 -40 18 0 20 -5 16 -32 -3 -18 -10
-112 -16 -208 -5 -96 -15 -245 -20 -330 -6 -85 -12 -244 -14 -352 -3 -190 -3
-197 15 -187 14 7 19 22 21 62 1 29 3 66 4 82 14 159 25 342 28 445 4 137 11
223 27 317 9 49 15 62 32 67 35 9 48 -12 46 -73 -1 -31 2 -65 7 -76 4 -11 -2
-101 -14 -210 -28 -247 -40 -374 -47 -515 -3 -63 -10 -144 -16 -180 -13 -84
-28 -251 -29 -316 l0 -51 171 -1 171 0 -7 131 c-4 73 -11 150 -15 172 -5 22
-18 148 -30 280 -30 363 -40 463 -50 550 -12 99 -2 282 15 289 7 2 22 2 33 -1
29 -7 40 -83 52 -383 11 -275 37 -567 53 -587 19 -25 28 -13 23 30 -3 23 -8
128 -11 232 -10 380 -24 646 -40 796 -5 41 -3 47 15 52 23 6 18 37 -6 37 -8 0
-14 5 -14 10 0 6 -69 10 -188 10 -176 0 -190 -1 -210 -20z"/>
<path d="M3810 1623 c0 -14 35 -117 43 -130 11 -18 44 -16 51 2 3 9 3 43 -1
75 l-6 60 -43 0 c-24 0 -44 -3 -44 -7z"/>
<path d="M4834 1604 c4 -16 7 -57 7 -91 -1 -106 45 -109 51 -3 2 43 7 56 21
58 15 3 17 -5 17 -64 0 -36 7 -110 16 -163 15 -82 15 -112 5 -207 -15 -147
-14 -164 4 -164 9 0 15 -9 15 -25 0 -14 -6 -25 -12 -25 -20 0 -12 -354 7 -370
16 -13 18 9 19 266 1 79 5 116 15 128 11 13 12 54 6 222 l-7 207 46 -7 46 -7
0 66 c0 60 2 66 18 60 9 -4 48 -14 86 -23 l68 -17 -5 -57 c-3 -37 -1 -63 7
-74 11 -15 14 -14 24 12 6 16 14 41 18 57 9 38 24 44 44 17 23 -30 46 -21 54
22 6 33 32 61 93 98 28 17 31 23 26 54 -4 28 -2 35 13 38 45 10 -108 19 -162
9 -32 -5 -79 -8 -104 -6 -25 2 -135 7 -244 11 l-199 7 7 -29z m551 -84 c3 -5
1 -10 -4 -10 -6 0 -11 5 -11 10 0 6 2 10 4 10 3 0 8 -4 11 -10z"/>
<path d="M1326 928 c-22 -118 -15 -198 18 -198 20 0 28 44 21 119 -8 86 -13
111 -24 111 -5 0 -11 -15 -15 -32z"/>
<path d="M5167 940 c-11 -47 -18 -156 -12 -183 4 -15 13 -27 20 -27 27 0 32
98 11 185 -11 43 -14 47 -19 25z"/>
<path d="M2913 218 c-6 -7 -13 -39 -17 -70 -5 -52 -4 -57 11 -51 29 11 39 32
42 84 1 37 -2 49 -12 49 -8 0 -19 -6 -24 -12z"/>
</g>
</svg>
